<svg width="48" height="43" viewBox="0 0 48 43" fill="none" xmlns="http://www.w3.org/2000/svg">
<rect x="1.29199" y="3.39673" width="13.625" height="38.6042" rx="2.25" stroke="#9F593F" stroke-width="2" stroke-linecap="round" stroke-linejoin="round"/>
<path fill-rule="evenodd" clip-rule="evenodd" d="M24.0003 1.125H37.6253C38.8795 1.125 39.8962 2.14169 39.8962 3.39583V14.5229C39.8962 15.15 39.3878 15.6583 38.7607 15.6583H22.8649C22.2378 15.6583 21.7295 15.15 21.7295 14.5229V3.39583C21.7295 2.14169 22.7462 1.125 24.0003 1.125Z" stroke="#9F593F" stroke-width="2" stroke-linecap="round" stroke-linejoin="round"/>
<path d="M14.917 7.9384H21.7295" stroke="#9F593F" stroke-width="2" stroke-linecap="round" stroke-linejoin="round"/>
<path d="M39.8958 7.9375H42.1667C44.675 7.9375 46.7083 9.97087 46.7083 12.4792V37.4583C46.7083 39.9666 44.675 42 42.1667 42H10.375" stroke="#9F593F" stroke-width="2" stroke-linecap="round" stroke-linejoin="round"/>
<path d="M24.0007 23.8211L24.012 23.8324L24.0007 23.8438L23.9893 23.8324L24.0007 23.8211" stroke="#9F593F" stroke-width="2" stroke-linecap="round" stroke-linejoin="round"/>
<path d="M30.8132 23.8211L30.8245 23.8324L30.8132 23.8438L30.8018 23.8324L30.8132 23.8211" stroke="#9F593F" stroke-width="2" stroke-linecap="round" stroke-linejoin="round"/>
<path d="M37.6257 23.8211L37.637 23.8324L37.6257 23.8438L37.6143 23.8324L37.6257 23.8211" stroke="#9F593F" stroke-width="2" stroke-linecap="round" stroke-linejoin="round"/>
<path d="M24.0007 30.6336L24.012 30.6449L24.0007 30.6563L23.9893 30.6449L24.0007 30.6336" stroke="#9F593F" stroke-width="2" stroke-linecap="round" stroke-linejoin="round"/>
<path d="M30.8132 30.6336L30.8245 30.6449L30.8132 30.6563L30.8018 30.6449L30.8132 30.6336" stroke="#9F593F" stroke-width="2" stroke-linecap="round" stroke-linejoin="round"/>
<path d="M37.6257 30.6336L37.637 30.6449L37.6257 30.6563L37.6143 30.6449L37.6257 30.6336" stroke="#9F593F" stroke-width="2" stroke-linecap="round" stroke-linejoin="round"/>
</svg>
