<svg width="44" height="43" viewBox="0 0 44 43" fill="none" xmlns="http://www.w3.org/2000/svg">
<path fill-rule="evenodd" clip-rule="evenodd" d="M37.5654 32.1875L34.943 29.5651C33.633 28.255 31.5091 28.255 30.2013 29.5651L28.1401 31.6263C27.6795 32.0869 26.982 32.2411 26.3874 31.9796C23.4006 30.6717 20.4496 28.6888 17.8183 26.0574C15.1982 23.4373 13.2219 20.4997 11.9118 17.5241C11.6391 16.9094 11.7978 16.1873 12.274 15.7111L14.1206 13.8645C15.6207 12.3644 15.6207 10.2428 14.3106 8.93272L11.6883 6.31036C9.94226 4.56435 7.11198 4.56435 5.36598 6.31036L3.90836 7.76574C2.25178 9.42232 1.56098 11.8122 2.0081 14.1819C3.11249 20.0236 6.50613 26.4196 11.9811 31.8946C17.4561 37.3696 23.8522 40.7632 29.6938 41.8676C32.0636 42.3148 34.4534 41.624 36.11 39.9674L37.5654 38.512C39.3114 36.766 39.3114 33.9357 37.5654 32.1875V32.1875Z" stroke="#9F593F" stroke-width="2" stroke-linecap="round" stroke-linejoin="round"/>
<path d="M24.23 10.6856C26.5349 10.6543 28.851 11.5083 30.6104 13.2678" stroke="#9F593F" stroke-width="2" stroke-linecap="round" stroke-linejoin="round"/>
<path d="M36.9327 6.94425C33.425 3.43659 28.8264 1.68164 24.23 1.68164" stroke="#9F593F" stroke-width="2" stroke-linecap="round" stroke-linejoin="round"/>
<path d="M33.1925 19.6463C33.2238 17.3414 32.3698 15.0254 30.6104 13.2659" stroke="#9F593F" stroke-width="2" stroke-linecap="round" stroke-linejoin="round"/>
<path d="M36.9331 6.94409C40.4408 10.4518 42.1957 15.0504 42.1957 19.6468" stroke="#9F593F" stroke-width="2" stroke-linecap="round" stroke-linejoin="round"/>
</svg>
