<svg width="362" height="221" viewBox="0 0 362 221" fill="none" xmlns="http://www.w3.org/2000/svg">
<path d="M2 214.791V214.756C2 211.495 4.65531 208.819 8.41592 208.819C10.7282 208.819 12.1257 209.555 13.32 210.607L11.9097 212.103C10.8934 211.25 9.83886 210.689 8.40322 210.689C6.05283 210.689 4.29956 212.477 4.29956 214.721V214.756C4.29956 217 6.02742 218.823 8.41592 218.823C9.92779 218.823 10.9315 218.262 11.9987 217.35L13.4089 218.659C12.1384 219.921 10.6647 220.693 8.3524 220.693C4.71883 220.693 2.01271 218.087 2.01271 214.791H2Z" fill="white"/>
<path d="M20.1423 214.791V214.756C20.1423 211.542 22.8485 208.819 26.6853 208.819C30.5222 208.819 33.1902 211.495 33.1902 214.721V214.756C33.1902 217.97 30.484 220.693 26.6472 220.693C22.8103 220.693 20.1423 218.017 20.1423 214.791ZM30.8906 214.791V214.756C30.8906 212.524 29.15 210.689 26.6472 210.689C24.1443 210.689 22.4419 212.489 22.4419 214.721V214.756C22.4419 216.988 24.1825 218.823 26.6853 218.823C29.1881 218.823 30.8906 217.023 30.8906 214.791Z" fill="white"/>
<path d="M41.1816 209.018H43.5193L47.318 214.44L51.1168 209.018H53.4545V220.494H51.2692V212.267L47.3308 217.677H47.2545L43.3542 212.302V220.494H41.1943V209.018H41.1816Z" fill="white"/>
<path d="M61.9795 209.018H66.8962C69.8183 209.018 71.6351 210.537 71.6351 212.851V212.886C71.6351 215.445 69.4118 216.801 66.6421 216.801H64.1647V220.494H61.9795V209.018ZM66.7184 214.978C68.37 214.978 69.4118 214.125 69.4118 212.933V212.898C69.4118 211.542 68.3573 210.853 66.7184 210.853H64.1647V214.978H66.7184Z" fill="white"/>
<path d="M78.6733 214.791V214.756C78.6733 211.542 81.3795 208.819 85.2163 208.819C89.0532 208.819 91.7212 211.495 91.7212 214.721V214.756C91.7212 217.97 89.015 220.693 85.1782 220.693C81.3413 220.693 78.6733 218.017 78.6733 214.791ZM89.4089 214.791V214.756C89.4089 212.524 87.6683 210.689 85.1655 210.689C82.6626 210.689 80.9602 212.489 80.9602 214.721V214.756C80.9602 216.988 82.7008 218.823 85.2036 218.823C87.7064 218.823 89.4089 217.023 89.4089 214.791Z" fill="white"/>
<path d="M99.5093 215.621V209.018H101.695V215.539C101.695 217.689 102.876 218.799 104.845 218.799C106.815 218.799 107.983 217.736 107.983 215.621V209.018H110.169V215.527C110.169 218.951 108.072 220.669 104.807 220.669C101.542 220.669 99.4966 218.951 99.4966 215.621H99.5093Z" fill="white"/>
<path d="M118.528 209.018H120.561L127.244 216.953V209.018H129.404V220.494H127.574L120.701 212.337V220.494H118.541V209.018H118.528Z" fill="white"/>
<path d="M137.941 209.018H142.591C146.504 209.018 149.223 211.495 149.223 214.721V214.756C149.223 217.981 146.517 220.494 142.591 220.494H137.941V209.018ZM140.139 210.853V218.647H142.604C145.221 218.647 146.936 217.023 146.936 214.779V214.744C146.936 212.5 145.221 210.841 142.604 210.841H140.139V210.853Z" fill="white"/>
<path d="M157.341 209.018H159.526V220.494H157.341V209.018Z" fill="white"/>
<path d="M168.204 209.018H170.237L176.92 216.953V209.018H179.079V220.494H177.25L170.377 212.337V220.494H168.217V209.018H168.204Z" fill="white"/>
<path d="M187.058 214.791V214.756C187.058 211.542 189.713 208.819 193.486 208.819C195.646 208.819 196.993 209.38 198.276 210.374L196.891 211.893C195.926 211.133 194.973 210.677 193.398 210.677C191.123 210.677 189.357 212.512 189.357 214.709V214.744C189.357 217.105 191.047 218.846 193.601 218.846C194.795 218.846 195.85 218.507 196.612 217.981V215.855H193.423V214.09H198.734V218.905C197.488 219.875 195.735 220.693 193.537 220.693C189.637 220.693 187.071 218.133 187.071 214.791H187.058Z" fill="white"/>
<path d="M217.6 209.018H222.517C225.439 209.018 227.256 210.537 227.256 212.851V212.886C227.256 215.445 225.032 216.801 222.263 216.801H219.785V220.494H217.6V209.018ZM222.339 214.978C223.991 214.978 225.032 214.125 225.032 212.933V212.898C225.032 211.542 223.978 210.853 222.339 210.853H219.785V214.978H222.339Z" fill="white"/>
<path d="M234.84 209.018H237.026V213.786H242.971V209.018H245.169V220.494H242.971V215.656H237.026V220.494H234.84V209.018Z" fill="white"/>
<path d="M258.141 208.936H260.174L265.662 220.494H263.35L262.079 217.725H256.184L254.901 220.494H252.652L258.141 208.936ZM261.279 215.937L259.119 211.344L256.985 215.937H261.279Z" fill="white"/>
<path d="M273.133 209.018H278.697C280.26 209.018 281.493 209.45 282.293 210.163C282.954 210.806 283.322 211.636 283.322 212.641V212.676C283.322 214.557 282.09 215.691 280.362 216.147L283.729 220.494H281.124L278.062 216.497H275.318V220.494H273.133V209.018ZM278.532 214.709C280.095 214.709 281.099 213.973 281.099 212.793V212.757C281.099 211.507 280.159 210.853 278.52 210.853H275.331V214.697H278.532V214.709Z" fill="white"/>
<path d="M291.351 209.018H293.689L297.488 214.44L301.286 209.018H303.624V220.494H301.439V212.267L297.5 217.677H297.424L293.524 212.302V220.494H291.364V209.018H291.351Z" fill="white"/>
<path d="M316.571 208.936H318.603L324.092 220.494H321.779L320.509 217.725H314.614L313.331 220.494H311.082L316.571 208.936ZM319.709 215.937L317.549 211.344L315.414 215.937H319.709Z" fill="white"/>
<path d="M330.241 214.791V214.756C330.241 211.495 332.897 208.819 336.657 208.819C338.969 208.819 340.367 209.556 341.561 210.607L340.151 212.103C339.135 211.25 338.08 210.689 336.644 210.689C334.294 210.689 332.541 212.477 332.541 214.721V214.756C332.541 217 334.269 218.823 336.657 218.823C338.169 218.823 339.173 218.262 340.24 217.35L341.65 218.659C340.38 219.921 338.906 220.693 336.594 220.693C332.96 220.693 330.254 218.087 330.254 214.791H330.241Z" fill="white"/>
<path d="M352.779 215.971L347.824 209.018H350.428L353.897 214.078L357.429 209.018H359.944L354.989 215.913V220.482H352.779V215.96V215.971Z" fill="white"/>
<path d="M314.389 188.455C314.597 190.067 315.477 191.544 316.778 192.615C317.242 192.996 317.909 193.167 318.213 193.595H306.739C308.724 192.193 310.037 190.587 310.324 188.233C309.528 174.152 311.393 159.08 310.338 145.115C310.245 143.889 309.999 142.772 309.236 141.748L306.263 139.547H319.409C319.438 140.069 318.876 140.275 318.744 140.793C318.297 142.572 319.201 143.865 320.267 145.216L355.031 182.873V144.687C355.031 144.176 354.519 142.432 354.249 141.901C353.809 141.037 352.986 140.51 352.4 139.764H361.724C361.552 140.3 360.849 140.438 360.524 140.806C359.675 141.769 358.855 144.356 358.855 145.563V196.443L314.389 148.738V188.457V188.455Z" fill="white"/>
<path d="M82.2106 188.237C82.366 189.442 83.1528 191.129 84.0017 192.07L85.7953 193.597H71.6909C73.7236 192.136 75.0556 190.477 75.2852 188.027V144.461C75.1154 142.476 74.4577 141.12 72.8866 139.766L79.9484 139.992C87.4214 139.362 95.4301 138.586 101.459 143.478C108.516 149.205 107.196 159.187 100.251 164.486C99.7466 164.869 97.47 166.102 97.3767 166.234C97.2548 166.405 97.2165 166.552 97.3002 166.748C104.223 175.824 110.295 186.221 120.456 192.617L124.045 194.032C115.915 194.359 109.334 191.735 104.211 186.041C99.2898 180.572 95.3345 174.047 90.9367 168.213H82.2106V188.237ZM82.2106 166.243H90.4585C90.8435 166.243 92.7135 165.657 93.2038 165.473C100.306 162.812 101.327 153.794 98.6729 148.002C95.7936 141.719 88.9758 140.255 82.2106 141.954V166.245V166.243Z" fill="white"/>
<path d="M65.2608 193.595H49.2433C53.9113 189.508 48.1959 183.626 46.6391 179.29L14.7381 179.189C14.31 179.323 12.0095 183.935 11.6699 184.696C10.204 187.996 8.53962 190.945 12.1889 193.595H0L4.06774 190.649L6.25585 187.836L32.6304 138.237L58.5266 187.617C59.4091 189.012 60.4445 190.359 61.7885 191.414C62.8933 192.281 64.1966 192.739 65.2608 193.595ZM45.1803 176.528L30.8345 148.079L16.0151 176.528H45.1803Z" fill="white"/>
<path d="M299.363 193.595H283.345C288.013 189.508 282.298 183.626 280.741 179.29L248.84 179.19C248.412 179.323 246.111 183.935 245.772 184.696C244.306 187.996 242.641 190.945 246.291 193.595H234.099L238.167 190.649L240.355 187.836L266.732 138.237L292.628 187.617C293.511 189.012 294.546 190.359 295.89 191.414C296.995 192.281 298.298 192.739 299.363 193.595ZM279.282 176.528L264.936 148.079L250.117 176.528H279.282Z" fill="white"/>
<path d="M121.979 142.61C119.695 142.904 117.76 144.99 117.313 146.984L117.081 145.128C117.198 143.854 117.82 141.258 118.748 140.308C120.405 138.612 124.356 139.499 126.522 139.542C136.226 139.738 145.967 139.878 155.695 139.773C158.301 139.744 161.157 139.222 163.792 139.564C167.142 139.999 167.606 144.584 167.398 146.989C166.817 145.756 165.978 144.512 164.768 143.704C164.287 143.384 162.379 142.61 161.9 142.61H145.763V186.704C145.763 186.978 146.024 188.415 146.108 188.795C146.5 190.554 147.169 191.463 148.628 192.614C149.097 192.983 149.754 193.174 150.063 193.595H135.004C135.392 193.141 136.052 192.946 136.561 192.507C137.81 191.432 139.067 189.383 139.067 187.799V142.61H121.974H121.979Z" fill="white"/>
<path d="M199.233 183.531L201.904 187.981C208.528 196.09 227.992 192.904 225.424 180.894C223.388 171.377 206.988 166.976 201.823 158.514C197.478 151.396 201.433 141.824 210.049 139.49C216.317 137.792 222.128 139.937 227.822 142.164L227.439 150.486C227.105 150.538 227.114 150.117 227.023 149.889C226.215 147.866 225.978 145.514 224.214 143.926C216.75 137.21 201.118 140.96 204.858 151.357C206.938 157.138 220.801 164.099 225.763 169.422C235.871 180.269 227.425 194.99 212.252 194.262C209.019 194.106 205.864 192.711 203.145 192.518C201.756 192.419 201.426 193.207 200.467 191.917C199.85 191.089 199.233 188.139 199.233 187.138V183.527V183.531Z" fill="white"/>
<path d="M188.521 139.549C188.231 139.955 187.722 140.08 187.327 140.532C186.196 141.831 186.156 143.551 185.883 145.117C186.612 158.674 184.945 173.033 185.883 186.496C186.103 189.655 186.851 191.697 189.719 193.597H175.138C175.519 193.097 176.325 192.847 176.808 192.393C178.24 191.05 178.824 188.766 178.972 186.932C180.074 173.224 178.12 158.297 178.972 144.461C178.761 143.002 178.484 141.557 177.415 140.416C177.044 140.021 176.545 139.922 176.336 139.547H188.525L188.521 139.549Z" fill="white"/>
<path d="M237.992 6.71463L238.227 5.58613L237.486 4.70449C234.36 0.989839 226.73 0.672448 225.226 0.648938L223.991 0.625427L223.274 1.62462C223.004 2.00079 196.331 39.1825 188.679 48.6925C187.868 49.7034 188.02 51.1846 189.043 51.9957C189.478 52.3484 189.995 52.5129 190.513 52.5129C191.194 52.5129 191.888 52.2073 192.346 51.6313C199.447 42.8031 221.875 11.6283 226.354 5.39804C228.658 5.57437 231.527 6.12687 233.102 7.07904C229.375 23.6186 222.616 36.3848 213 45.0601C187.797 67.7947 151.415 56.1571 143.903 50.9965C139.906 48.2458 138.026 44.9896 138.872 42.2624C140.365 37.4428 150.451 32.2822 174.267 32.2705H174.29C178.875 32.2705 185.481 33.1168 189.913 35.0212C191.112 35.5267 192.487 34.9742 193.005 33.7869C193.522 32.5879 192.958 31.2125 191.77 30.6953C186.375 28.3795 178.992 27.5684 174.302 27.5684H174.279C151.215 27.5684 137.05 32.3057 134.405 40.8635C132.912 45.6596 135.475 50.9025 141.258 54.8757C146.995 58.8137 160.231 63.2102 175.207 63.2102C188.162 63.2102 202.421 59.907 214.258 50.1854C218.137 55.4517 220.194 61.3646 220.194 67.4538C220.194 86.8499 199.599 102.637 174.29 102.637C148.981 102.637 130.008 88.1195 128.445 69.7931C136.533 69.9107 163.828 72.0971 177.652 95.4312C178.311 96.548 179.757 96.9124 180.873 96.2541C181.99 95.5958 182.366 94.1499 181.696 93.0332C163.958 63.0809 127.399 65.0322 125.847 65.1263L123.649 65.2673V67.4773C123.649 89.4713 146.348 107.363 174.267 107.363C202.186 107.363 224.873 89.4713 224.873 67.4773C224.873 60.2361 222.416 53.2183 217.761 47.0585C227.518 37.525 234.336 23.9713 238.004 6.72638L237.992 6.71463Z" fill="url(#paint0_linear_104_108)"/>
<defs>
<linearGradient id="paint0_linear_104_108" x1="123.649" y1="53.9941" x2="238.227" y2="53.9941" gradientUnits="userSpaceOnUse">
<stop stop-color="#B49887"/>
<stop offset="1" stop-color="#F8ECBD"/>
</linearGradient>
</defs>
</svg>
