<svg width="14" height="14" viewBox="0 0 14 14" fill="none" xmlns="http://www.w3.org/2000/svg">
<path d="M9.39746 0C11.596 0 13.3846 1.78874 13.3848 3.9873V9.39746C13.3848 11.5962 11.5962 13.3857 9.39746 13.3857H3.9873C1.78868 13.3856 0 11.5961 0 9.39746V3.9873C0.0001848 1.78881 1.78879 0.000114457 3.9873 0H9.39746ZM3.9873 1.34668C2.52907 1.34691 1.34687 2.52903 1.34668 3.9873V9.39746C1.34668 10.8559 2.52895 12.0388 3.9873 12.0391H9.39746C10.856 12.0391 12.0391 10.856 12.0391 9.39746V3.9873C12.0389 2.52889 10.8559 1.34668 9.39746 1.34668H3.9873ZM6.69238 3.23047C8.6012 3.23047 10.1542 4.78359 10.1543 6.69238C10.1543 8.60127 8.60127 10.1543 6.69238 10.1543C4.78363 10.1541 3.23047 8.60114 3.23047 6.69238C3.23058 4.78371 4.7837 3.23063 6.69238 3.23047ZM6.69238 4.57715C5.52442 4.5773 4.5774 5.52442 4.57715 6.69238C4.57715 7.86057 5.52423 8.80844 6.69238 8.80859C7.86063 8.80859 8.80762 7.86063 8.80762 6.69238C8.80736 5.52432 7.8605 4.57715 6.69238 4.57715ZM10.1611 2.42773C10.6193 2.42773 10.9912 2.79869 10.9912 3.25684C10.9912 3.71496 10.6193 4.08594 10.1611 4.08594C9.70311 4.08581 9.33206 3.71488 9.33203 3.25684C9.33203 2.79877 9.7031 2.42786 10.1611 2.42773Z" fill="white"/>
</svg>
