<svg width="176" height="39" viewBox="0 0 176 39" fill="none" xmlns="http://www.w3.org/2000/svg">
<path d="M46.1628 33.5697V33.557C46.1628 32.3743 47.126 31.4036 48.4901 31.4036C49.3288 31.4036 49.8357 31.6706 50.2689 32.0521L49.7574 32.5947C49.3887 32.2853 49.0062 32.0818 48.4855 32.0818C47.6329 32.0818 46.997 32.7304 46.997 33.5443V33.557C46.997 34.3709 47.6237 35.0322 48.4901 35.0322C49.0385 35.0322 49.4025 34.8287 49.7896 34.498L50.3012 34.9728C49.8403 35.4306 49.3058 35.7104 48.467 35.7104C47.149 35.7104 46.1675 34.7651 46.1675 33.5697H46.1628Z" fill="white"/>
<path d="M52.7437 33.5697V33.557C52.7437 32.3913 53.7252 31.4036 55.117 31.4036C56.5087 31.4036 57.4765 32.3743 57.4765 33.5443V33.557C57.4765 34.7227 56.4949 35.7104 55.1031 35.7104C53.7114 35.7104 52.7437 34.7397 52.7437 33.5697ZM56.6423 33.5697V33.557C56.6423 32.7473 56.011 32.0818 55.1031 32.0818C54.1953 32.0818 53.5778 32.7346 53.5778 33.5443V33.557C53.5778 34.3666 54.2091 35.0322 55.117 35.0322C56.0248 35.0322 56.6423 34.3793 56.6423 33.5697Z" fill="white"/>
<path d="M60.375 31.4756H61.2229L62.6008 33.4425L63.9788 31.4756H64.8267V35.6383H64.0341V32.654L62.6055 34.6167H62.5778L61.163 32.6667V35.6383H60.3796V31.4756H60.375Z" fill="white"/>
<path d="M67.9192 31.4756H69.7026C70.7626 31.4756 71.4216 32.0267 71.4216 32.866V32.8787C71.4216 33.807 70.6151 34.2988 69.6105 34.2988H68.7118V35.6383H67.9192V31.4756ZM69.6381 33.6375C70.2372 33.6375 70.6151 33.328 70.6151 32.8956V32.8829C70.6151 32.3912 70.2326 32.1411 69.6381 32.1411H68.7118V33.6375H69.6381Z" fill="white"/>
<path d="M73.9744 33.5697V33.557C73.9744 32.3913 74.956 31.4036 76.3477 31.4036C77.7394 31.4036 78.7072 32.3743 78.7072 33.5443V33.557C78.7072 34.7227 77.7256 35.7104 76.3339 35.7104C74.9421 35.7104 73.9744 34.7397 73.9744 33.5697ZM77.8684 33.5697V33.557C77.8684 32.7473 77.2371 32.0818 76.3292 32.0818C75.4214 32.0818 74.8039 32.7346 74.8039 33.5443V33.557C74.8039 34.3666 75.4352 35.0322 76.3431 35.0322C77.2509 35.0322 77.8684 34.3793 77.8684 33.5697Z" fill="white"/>
<path d="M81.5322 33.8706V31.4756H82.3248V33.8409C82.3248 34.6209 82.7534 35.0236 83.4677 35.0236C84.182 35.0236 84.606 34.6379 84.606 33.8706V31.4756H85.3986V33.8367C85.3986 35.0787 84.6382 35.7019 83.4539 35.7019C82.2695 35.7019 81.5276 35.0787 81.5276 33.8706H81.5322Z" fill="white"/>
<path d="M88.4309 31.4756H89.1683L91.5923 34.3539V31.4756H92.3757V35.6383H91.7121L89.2189 32.6795V35.6383H88.4355V31.4756H88.4309Z" fill="white"/>
<path d="M95.4724 31.4756H97.1591C98.5785 31.4756 99.5647 32.3742 99.5647 33.5442V33.5569C99.5647 34.7269 98.5831 35.6383 97.1591 35.6383H95.4724V31.4756ZM96.2697 32.1411V34.9685H97.1637C98.113 34.9685 98.7351 34.3793 98.7351 33.5654V33.5527C98.7351 32.7388 98.113 32.1369 97.1637 32.1369H96.2697V32.1411Z" fill="white"/>
<path d="M102.509 31.4756H103.302V35.6383H102.509V31.4756Z" fill="white"/>
<path d="M106.45 31.4756H107.187L109.611 34.3539V31.4756H110.394V35.6383H109.731L107.238 32.6795V35.6383H106.454V31.4756H106.45Z" fill="white"/>
<path d="M113.289 33.5697V33.557C113.289 32.3913 114.252 31.4036 115.62 31.4036C116.404 31.4036 116.892 31.607 117.358 31.9674L116.855 32.5184C116.505 32.2429 116.16 32.0776 115.588 32.0776C114.763 32.0776 114.123 32.7431 114.123 33.54V33.5527C114.123 34.409 114.736 35.0406 115.662 35.0406C116.095 35.0406 116.478 34.9177 116.754 34.7269V33.9554H115.597V33.3154H117.524V35.0618C117.072 35.4137 116.436 35.7104 115.639 35.7104C114.224 35.7104 113.293 34.782 113.293 33.5697H113.289Z" fill="white"/>
<path d="M124.367 31.4756H126.15C127.21 31.4756 127.869 32.0267 127.869 32.866V32.8787C127.869 33.807 127.063 34.2988 126.058 34.2988H125.16V35.6383H124.367V31.4756ZM126.086 33.6375C126.685 33.6375 127.063 33.328 127.063 32.8956V32.8829C127.063 32.3912 126.68 32.1411 126.086 32.1411H125.16V33.6375H126.086Z" fill="white"/>
<path d="M130.621 31.4756H131.413V33.2051H133.57V31.4756H134.367V35.6383H133.57V33.8833H131.413V35.6383H130.621V31.4756Z" fill="white"/>
<path d="M139.072 31.446H139.81L141.801 35.6384H140.962L140.501 34.6338H138.363L137.897 35.6384H137.082L139.072 31.446ZM140.211 33.9852L139.427 32.3193L138.653 33.9852H140.211Z" fill="white"/>
<path d="M144.51 31.4756H146.529C147.096 31.4756 147.543 31.6324 147.833 31.891C148.073 32.1242 148.206 32.4251 148.206 32.7897V32.8024C148.206 33.4849 147.759 33.8961 147.132 34.0614L148.354 35.6383H147.409L146.298 34.1885H145.303V35.6383H144.51V31.4756ZM146.469 33.54C147.036 33.54 147.4 33.2729 147.4 32.8448V32.8321C147.4 32.3785 147.059 32.1411 146.464 32.1411H145.307V33.5357H146.469V33.54Z" fill="white"/>
<path d="M151.119 31.4756H151.967L153.344 33.4425L154.722 31.4756H155.57V35.6383H154.778V32.654L153.349 34.6167H153.321L151.907 32.6667V35.6383H151.123V31.4756H151.119Z" fill="white"/>
<path d="M160.266 31.446H161.004L162.995 35.6384H162.156L161.695 34.6338H159.557L159.091 35.6384H158.276L160.266 31.446ZM161.405 33.9852L160.621 32.3193L159.847 33.9852H161.405Z" fill="white"/>
<path d="M165.225 33.5697V33.557C165.225 32.3743 166.188 31.4036 167.552 31.4036C168.391 31.4036 168.898 31.6706 169.331 32.0521L168.82 32.5947C168.451 32.2853 168.068 32.0818 167.548 32.0818C166.695 32.0818 166.059 32.7304 166.059 33.5443V33.557C166.059 34.3709 166.686 35.0322 167.552 35.0322C168.101 35.0322 168.465 34.8287 168.852 34.498L169.363 34.9728C168.903 35.4306 168.368 35.7104 167.529 35.7104C166.211 35.7104 165.23 34.7651 165.23 33.5697H165.225Z" fill="white"/>
<path d="M173.4 33.9978L171.603 31.4756H172.548L173.806 33.3111L175.087 31.4756H175.999L174.202 33.9766V35.634H173.4V33.9935V33.9978Z" fill="white"/>
<path d="M158.83 24.0168C158.906 24.6018 159.225 25.1373 159.697 25.5257C159.865 25.6642 160.107 25.7262 160.217 25.8814H156.055C156.775 25.3729 157.252 24.7904 157.356 23.9365C157.067 18.8289 157.743 13.3617 157.361 8.29638C157.327 7.85152 157.238 7.44645 156.961 7.07481L155.883 6.27661H160.651C160.661 6.46601 160.458 6.54082 160.41 6.72863C160.248 7.37403 160.576 7.84277 160.962 8.33299L173.572 21.9923V8.1412C173.572 7.95577 173.386 7.3231 173.288 7.13052C173.129 6.81697 172.83 6.62597 172.618 6.3554H176C175.938 6.54957 175.683 6.59971 175.565 6.73341C175.257 7.08277 174.959 8.02103 174.959 8.45873V26.9144L158.83 9.61026V24.0176V24.0168Z" fill="white"/>
<path d="M74.6127 23.9379C74.669 24.3748 74.9544 24.9868 75.2624 25.3282L75.9129 25.8821H70.7969C71.5342 25.3521 72.0173 24.7505 72.1006 23.8615V8.05913C72.039 7.33892 71.8005 6.84711 71.2306 6.35609L73.7921 6.43806C76.5028 6.20966 79.4078 5.92795 81.5945 7.7026C84.1543 9.77967 83.6755 13.4006 81.1565 15.3225C80.9734 15.4618 80.1477 15.909 80.1138 15.9568C80.0696 16.0188 80.0557 16.0721 80.0861 16.143C82.5973 19.4352 84.7996 23.2066 88.4853 25.5264L89.7873 26.0397C86.8381 26.1583 84.4509 25.2065 82.5929 23.1413C80.8078 21.1574 79.3731 18.7906 77.7779 16.6746H74.6127V23.9379ZM74.6127 15.9599H77.6044C77.744 15.9599 78.4224 15.7475 78.6002 15.6806C81.1764 14.7153 81.5468 11.4445 80.584 9.34357C79.5396 7.06436 77.0666 6.53356 74.6127 7.14952V15.9607V15.9599Z" fill="white"/>
<path d="M68.4644 25.8813H62.6544C64.3476 24.3987 62.2745 22.2651 61.7098 20.6926L50.1384 20.656C49.9831 20.7045 49.1487 22.3773 49.0255 22.6535C48.4938 23.8504 47.89 24.92 49.2137 25.8813H44.7925L46.268 24.8125L47.0617 23.7923L56.6284 5.80139L66.0217 23.7127C66.3418 24.2188 66.7174 24.7075 67.2049 25.0903C67.6056 25.4046 68.0784 25.5709 68.4644 25.8813ZM61.1806 19.6907L55.977 9.3714L50.6016 19.6907H61.1806Z" fill="white"/>
<path d="M153.38 25.8814H147.57C149.263 24.3988 147.19 22.2653 146.625 20.6927L135.054 20.6561C134.898 20.7047 134.064 22.3775 133.941 22.6536C133.409 23.8505 132.805 24.9201 134.129 25.8814H129.707L131.182 24.8126L131.976 23.7924L141.544 5.80151L150.937 23.7128C151.257 24.219 151.633 24.7076 152.12 25.0904C152.521 25.4047 152.994 25.5711 153.38 25.8814ZM146.096 19.6908L140.892 9.37152L135.517 19.6908H146.096Z" fill="white"/>
<path d="M89.0375 7.38749C88.2091 7.49413 87.5073 8.25094 87.3451 8.97433L87.261 8.30108C87.3035 7.83871 87.529 6.89727 87.8656 6.55268C88.4667 5.93752 89.8997 6.25903 90.6856 6.27494C94.2055 6.34577 97.7386 6.3967 101.267 6.3585C102.213 6.34816 103.248 6.15876 104.204 6.2829C105.42 6.44047 105.588 8.10372 105.512 8.97593C105.302 8.52868 104.997 8.07746 104.558 7.7846C104.384 7.66841 103.692 7.38749 103.518 7.38749H97.6648V23.3817C97.6648 23.4812 97.7594 24.0024 97.7897 24.1401C97.932 24.7783 98.1749 25.1078 98.704 25.5256C98.874 25.6593 99.1125 25.7285 99.2244 25.8813H93.7623C93.9028 25.7166 94.1422 25.6458 94.327 25.4866C94.7798 25.0967 95.236 24.3534 95.236 23.7788V7.38749H89.0357H89.0375Z" fill="white"/>
<path d="M117.06 22.2309L118.029 23.8448C120.431 26.7861 127.491 25.6306 126.56 21.2744C125.822 17.8221 119.873 16.2257 117.999 13.1563C116.423 10.5747 117.858 7.10256 120.983 6.25582C123.257 5.63986 125.364 6.41816 127.43 7.22591L127.291 10.2444C127.17 10.2635 127.173 10.1107 127.14 10.028C126.847 9.29422 126.761 8.44111 126.121 7.86495C123.414 5.42897 117.743 6.78901 119.1 10.5604C119.855 12.6573 124.883 15.1824 126.683 17.1131C130.35 21.0476 127.286 26.3874 121.782 26.1232C120.609 26.0667 119.465 25.5606 118.479 25.4906C117.975 25.4548 117.855 25.7405 117.507 25.2725C117.284 24.9725 117.06 23.9021 117.06 23.5392V22.2293V22.2309Z" fill="white"/>
<path d="M113.174 6.27741C113.069 6.42463 112.884 6.46999 112.741 6.63393C112.331 7.10505 112.316 7.72897 112.217 8.29718C112.482 13.2145 111.877 18.4231 112.217 23.3062C112.297 24.4521 112.569 25.193 113.609 25.8822H108.32C108.458 25.7008 108.75 25.61 108.926 25.4453C109.445 24.9583 109.657 24.1298 109.711 23.4645C110.11 18.4923 109.402 13.0776 109.711 8.05923C109.634 7.53001 109.534 7.00557 109.146 6.59175C109.011 6.44851 108.83 6.4127 108.755 6.27661H113.176L113.174 6.27741Z" fill="white"/>
<path d="M41.6226 2.34739L41.7079 1.93806L41.4392 1.61826C40.305 0.270854 37.5377 0.155728 36.992 0.1472L36.5442 0.138672L36.2841 0.501107C36.1861 0.637553 26.5112 14.1244 23.7353 17.5739C23.4411 17.9406 23.4966 18.4779 23.8675 18.7721C24.0253 18.9 24.2129 18.9597 24.4005 18.9597C24.6478 18.9597 24.8994 18.8489 25.0657 18.6399C27.6411 15.4377 35.7767 4.12972 37.4013 1.86983C38.237 1.93379 39.2774 2.1342 39.8488 2.47958C38.4971 8.47894 36.0454 13.1096 32.5574 16.2564C23.4156 24.5028 10.2186 20.2815 7.49399 18.4097C6.04425 17.4119 5.36202 16.2308 5.66902 15.2416C6.21054 13.4933 9.86901 11.6215 18.5078 11.6172H18.5163C20.1792 11.6172 22.5756 11.9242 24.1831 12.615C24.618 12.7983 25.1169 12.5979 25.3045 12.1673C25.4921 11.7323 25.2874 11.2335 24.8568 11.0458C22.8996 10.2058 20.2219 9.91163 18.5205 9.91163H18.512C10.1462 9.91163 5.00811 11.63 4.04872 14.7341C3.5072 16.4738 4.43674 18.3756 6.5346 19.8168C8.61541 21.2452 13.4166 22.8399 18.8489 22.8399C23.5477 22.8399 28.7199 21.6417 33.0137 18.1155C34.4208 20.0257 35.167 22.1705 35.167 24.3792C35.167 31.4147 27.6966 37.1412 18.5163 37.1412C9.33601 37.1412 2.45401 31.8752 1.88691 25.2277C4.8205 25.2704 14.7214 26.0634 19.7358 34.5274C19.9746 34.9324 20.499 35.0646 20.9041 34.8258C21.3092 34.5871 21.4456 34.0626 21.2026 33.6575C14.7683 22.793 1.50741 23.5008 0.944574 23.5349L0.147217 23.5861V24.3877C0.147217 32.3656 8.38089 38.8553 18.5078 38.8553C28.6346 38.8553 36.864 32.3656 36.864 24.3877C36.864 21.7611 35.9729 19.2156 34.2843 16.9812C37.8234 13.5232 40.2965 8.60686 41.6269 2.35166L41.6226 2.34739Z" fill="url(#paint0_linear_442_1940)"/>
<defs>
<linearGradient id="paint0_linear_442_1940" x1="0.147217" y1="19.497" x2="41.7079" y2="19.497" gradientUnits="userSpaceOnUse">
<stop stop-color="#D2BAAB"/>
<stop offset="1" stop-color="#F8ECBD"/>
</linearGradient>
</defs>
</svg>
