<svg width="11" height="11" viewBox="0 0 11 11" fill="none" xmlns="http://www.w3.org/2000/svg">
<path d="M10.9581 10.9755V7.10586C10.9581 5.20409 10.5407 3.75134 8.27835 3.75134C7.18759 3.75134 6.46041 4.33244 6.16416 4.88713H6.13722V3.92303H3.99609V10.9755H6.23149V7.47565C6.23149 6.55118 6.40655 5.66633 7.56464 5.66633C8.70927 5.66633 8.72274 6.70966 8.72274 7.52848V10.9622H10.9581V10.9755Z" fill="white"/>
<path d="M0.360107 3.92322H2.5955V10.9756H0.360107V3.92322Z" fill="white"/>
<path d="M1.47782 0.410278C0.764106 0.410278 0.185059 0.97817 0.185059 1.67813C0.185059 2.37809 0.764106 2.95919 1.47782 2.95919C2.19153 2.95919 2.77057 2.37809 2.77057 1.67813C2.77057 0.97817 2.19153 0.410278 1.47782 0.410278Z" fill="white"/>
</svg>
