<svg width="176" height="39" viewBox="0 0 176 39" fill="none" xmlns="http://www.w3.org/2000/svg">
<path d="M46.1627 33.5697V33.557C46.1627 32.3743 47.1259 31.4035 48.49 31.4035C49.3287 31.4035 49.8356 31.6706 50.2688 32.0521L49.7573 32.5947C49.3886 32.2853 49.0061 32.0818 48.4853 32.0818C47.6328 32.0818 46.9968 32.7304 46.9968 33.5442V33.557C46.9968 34.3709 47.6236 35.0321 48.49 35.0321C49.0384 35.0321 49.4024 34.8287 49.7895 34.498L50.301 34.9728C49.8402 35.4306 49.3056 35.7104 48.4669 35.7104C47.1489 35.7104 46.1673 34.7651 46.1673 33.5697H46.1627Z" fill="#685C51"/>
<path d="M52.7435 33.5697V33.557C52.7435 32.3913 53.7251 31.4036 55.1168 31.4036C56.5085 31.4036 57.4763 32.3743 57.4763 33.5443V33.557C57.4763 34.7227 56.4947 35.7104 55.103 35.7104C53.7113 35.7104 52.7435 34.7397 52.7435 33.5697ZM56.6422 33.5697V33.557C56.6422 32.7473 56.0108 32.0818 55.103 32.0818C54.1951 32.0818 53.5776 32.7346 53.5776 33.5443V33.557C53.5776 34.3666 54.209 35.0322 55.1168 35.0322C56.0247 35.0322 56.6422 34.3794 56.6422 33.5697Z" fill="#685C51"/>
<path d="M60.375 31.4756H61.2229L62.6008 33.4425L63.9787 31.4756H64.8267V35.6383H64.034V32.654L62.6054 34.6167H62.5778L61.163 32.6667V35.6383H60.3796V31.4756H60.375Z" fill="#685C51"/>
<path d="M67.9189 31.4756H69.7024C70.7623 31.4756 71.4213 32.0267 71.4213 32.866V32.8787C71.4213 33.807 70.6148 34.2988 69.6102 34.2988H68.7116V35.6383H67.9189V31.4756ZM69.6379 33.6375C70.237 33.6375 70.6149 33.328 70.6149 32.8956V32.8829C70.6149 32.3912 70.2324 32.1411 69.6379 32.1411H68.7116V33.6375H69.6379Z" fill="#685C51"/>
<path d="M73.9743 33.5697V33.557C73.9743 32.3913 74.9559 31.4036 76.3476 31.4036C77.7393 31.4036 78.7071 32.3743 78.7071 33.5443V33.557C78.7071 34.7227 77.7255 35.7104 76.3338 35.7104C74.942 35.7104 73.9743 34.7397 73.9743 33.5697ZM77.8684 33.5697V33.557C77.8684 32.7473 77.237 32.0818 76.3292 32.0818C75.4213 32.0818 74.8038 32.7346 74.8038 33.5443V33.557C74.8038 34.3666 75.4351 35.0322 76.343 35.0322C77.2508 35.0322 77.8684 34.3794 77.8684 33.5697Z" fill="#685C51"/>
<path d="M81.532 33.8706V31.4756H82.3247V33.8409C82.3247 34.6209 82.7532 35.0236 83.4675 35.0236C84.1818 35.0236 84.6058 34.6379 84.6058 33.8706V31.4756H85.3984V33.8367C85.3984 35.0787 84.6381 35.7019 83.4537 35.7019C82.2694 35.7019 81.5274 35.0787 81.5274 33.8706H81.532Z" fill="#685C51"/>
<path d="M88.4308 31.4756H89.1681L91.5921 34.3539V31.4756H92.3756V35.6383H91.712L89.2188 32.6795V35.6383H88.4354V31.4756H88.4308Z" fill="#685C51"/>
<path d="M95.4723 31.4756H97.159C98.5784 31.4756 99.5646 32.3742 99.5646 33.5442V33.5569C99.5646 34.7269 98.583 35.6383 97.159 35.6383H95.4723V31.4756ZM96.2696 32.1411V34.9685H97.1636C98.1129 34.9685 98.735 34.3793 98.735 33.5654V33.5527C98.735 32.7388 98.1129 32.1369 97.1636 32.1369H96.2696V32.1411Z" fill="#685C51"/>
<path d="M102.509 31.4756H103.302V35.6383H102.509V31.4756Z" fill="#685C51"/>
<path d="M106.45 31.4756H107.187L109.611 34.3539V31.4756H110.394V35.6383H109.731L107.238 32.6795V35.6383H106.454V31.4756H106.45Z" fill="#685C51"/>
<path d="M113.288 33.5697V33.557C113.288 32.3913 114.252 31.4036 115.62 31.4036C116.404 31.4036 116.892 31.6071 117.358 31.9674L116.855 32.5184C116.505 32.2429 116.159 32.0776 115.588 32.0776C114.763 32.0776 114.123 32.7431 114.123 33.54V33.5528C114.123 34.409 114.735 35.0406 115.662 35.0406C116.095 35.0406 116.477 34.9177 116.754 34.727V33.9555H115.597V33.3154H117.523V35.0618C117.072 35.4137 116.436 35.7104 115.639 35.7104C114.224 35.7104 113.293 34.7821 113.293 33.5697H113.288Z" fill="#685C51"/>
<path d="M124.367 31.4756H126.15C127.21 31.4756 127.869 32.0267 127.869 32.866V32.8787C127.869 33.807 127.063 34.2988 126.058 34.2988H125.16V35.6383H124.367V31.4756ZM126.086 33.6375C126.685 33.6375 127.063 33.328 127.063 32.8956V32.8829C127.063 32.3912 126.68 32.1411 126.086 32.1411H125.16V33.6375H126.086Z" fill="#685C51"/>
<path d="M130.62 31.4756H131.413V33.2051H133.57V31.4756H134.367V35.6383H133.57V33.8833H131.413V35.6383H130.62V31.4756Z" fill="#685C51"/>
<path d="M139.072 31.446H139.809L141.8 35.6384H140.962L140.501 34.6338H138.362L137.897 35.6384H137.081L139.072 31.446ZM140.21 33.9852L139.427 32.3193L138.653 33.9852H140.21Z" fill="#685C51"/>
<path d="M144.51 31.4756H146.529C147.095 31.4756 147.543 31.6324 147.833 31.891C148.072 32.1242 148.206 32.4251 148.206 32.7897V32.8024C148.206 33.4849 147.759 33.8961 147.132 34.0614L148.354 35.6383H147.409L146.298 34.1885H145.303V35.6383H144.51V31.4756ZM146.469 33.54C147.036 33.54 147.4 33.2729 147.4 32.8448V32.8321C147.4 32.3785 147.059 32.1411 146.464 32.1411H145.307V33.5357H146.469V33.54Z" fill="#685C51"/>
<path d="M151.118 31.4756H151.966L153.344 33.4425L154.722 31.4756H155.57V35.6383H154.778V32.654L153.349 34.6167H153.321L151.906 32.6667V35.6383H151.123V31.4756H151.118Z" fill="#685C51"/>
<path d="M160.266 31.446H161.004L162.994 35.6384H162.156L161.695 34.6338H159.557L159.091 35.6384H158.275L160.266 31.446ZM161.405 33.9852L160.621 32.3193L159.847 33.9852H161.405Z" fill="#685C51"/>
<path d="M165.225 33.5697V33.557C165.225 32.3743 166.188 31.4036 167.552 31.4036C168.391 31.4036 168.898 31.6706 169.331 32.0522L168.819 32.5947C168.451 32.2853 168.068 32.0818 167.548 32.0818C166.695 32.0818 166.059 32.7304 166.059 33.5443V33.557C166.059 34.3709 166.686 35.0322 167.552 35.0322C168.101 35.0322 168.465 34.8287 168.852 34.4981L169.363 34.9728C168.902 35.4306 168.368 35.7104 167.529 35.7104C166.211 35.7104 165.23 34.7651 165.23 33.5697H165.225Z" fill="#685C51"/>
<path d="M173.4 33.9978L171.603 31.4756H172.547L173.805 33.3111L175.087 31.4756H175.999L174.202 33.9766V35.634H173.4V33.9935V33.9978Z" fill="#685C51"/>
<path d="M158.83 24.0168C158.906 24.6017 159.225 25.1373 159.697 25.5257C159.865 25.6641 160.107 25.7262 160.217 25.8814H156.055C156.775 25.3729 157.252 24.7903 157.356 23.9364C157.067 18.8289 157.743 13.3617 157.361 8.29635C157.327 7.85149 157.238 7.44642 156.961 7.07478L155.883 6.27658H160.651C160.661 6.46598 160.457 6.54079 160.41 6.7286C160.248 7.374 160.575 7.84274 160.962 8.33296L173.572 21.9923V8.14117C173.572 7.95574 173.386 7.32307 173.288 7.13049C173.129 6.81694 172.83 6.62594 172.618 6.35537H176C175.937 6.54954 175.682 6.59968 175.564 6.73338C175.257 7.08274 174.959 8.021 174.959 8.45869V26.9143L158.83 9.61023V24.0176V24.0168Z" fill="#685C51"/>
<path d="M74.6125 23.9379C74.6689 24.3748 74.9543 24.9868 75.2622 25.3282L75.9128 25.8821H70.7968C71.5341 25.3521 72.0172 24.7505 72.1005 23.8615V8.05912C72.0389 7.33891 71.8004 6.8471 71.2305 6.35608L73.792 6.43805C76.5026 6.20965 79.4076 5.92794 81.5944 7.7026C84.1542 9.77966 83.6753 13.4006 81.1564 15.3225C80.9733 15.4618 80.1475 15.909 80.1137 15.9567C80.0695 16.0188 80.0556 16.0721 80.086 16.143C82.5971 19.4352 84.7995 23.2066 88.4852 25.5264L89.7872 26.0397C86.838 26.1583 84.4508 25.2065 82.5928 23.1413C80.8076 21.1574 79.3729 18.7906 77.7777 16.6746H74.6125V23.9379ZM74.6125 15.9599H77.6043C77.7439 15.9599 78.4222 15.7474 78.6001 15.6806C81.1763 14.7153 81.5467 11.4445 80.5839 9.34356C79.5395 7.06436 77.0665 6.53355 74.6125 7.14951V15.9607V15.9599Z" fill="#685C51"/>
<path d="M68.4643 25.8813H62.6543C64.3475 24.3987 62.2744 22.2652 61.7097 20.6926L50.1383 20.656C49.9831 20.7046 49.1486 22.3774 49.0254 22.6535C48.4937 23.8504 47.89 24.92 49.2137 25.8813H44.7924L46.2679 24.8125L47.0616 23.7923L56.6284 5.80141L66.0217 23.7127C66.3417 24.2189 66.7173 24.7075 67.2048 25.0903C67.6056 25.4046 68.0783 25.571 68.4643 25.8813ZM61.1806 19.6907L55.9769 9.37142L50.6015 19.6907H61.1806Z" fill="#685C51"/>
<path d="M153.38 25.8813H147.57C149.263 24.3987 147.19 22.2652 146.625 20.6927L135.054 20.656C134.898 20.7046 134.064 22.3774 133.941 22.6535C133.409 23.8504 132.805 24.92 134.129 25.8813H129.707L131.182 24.8126L131.976 23.7923L141.544 5.80144L150.937 23.7128C151.257 24.2189 151.633 24.7075 152.12 25.0903C152.521 25.4047 152.994 25.571 153.38 25.8813ZM146.096 19.6907L140.892 9.37145L135.517 19.6907H146.096Z" fill="#685C51"/>
<path d="M89.0374 7.38748C88.209 7.49412 87.5073 8.25093 87.3451 8.97433L87.261 8.30107C87.3035 7.8387 87.529 6.89726 87.8655 6.55267C88.4667 5.93751 89.8996 6.25902 90.6855 6.27494C94.2055 6.34576 97.7385 6.3967 101.267 6.3585C102.213 6.34815 103.248 6.15875 104.204 6.28289C105.42 6.44046 105.588 8.10371 105.512 8.97592C105.302 8.52867 104.997 8.07745 104.558 7.78459C104.384 7.6684 103.692 7.38748 103.518 7.38748H97.6648V23.3817C97.6648 23.4812 97.7593 24.0024 97.7897 24.1401C97.932 24.7783 98.1748 25.1078 98.704 25.5256C98.874 25.6593 99.1125 25.7285 99.2244 25.8813H93.7623C93.9028 25.7166 94.1422 25.6458 94.327 25.4866C94.7798 25.0967 95.236 24.3534 95.236 23.7788V7.38748H89.0357H89.0374Z" fill="#685C51"/>
<path d="M117.06 22.2309L118.029 23.8448C120.432 26.7861 127.491 25.6306 126.56 21.2744C125.822 17.8221 119.873 16.2257 117.999 13.1563C116.423 10.5747 117.858 7.10255 120.983 6.25581C123.257 5.63985 125.365 6.41816 127.43 7.2259L127.291 10.2444C127.17 10.2635 127.173 10.1107 127.14 10.028C126.847 9.29422 126.761 8.44111 126.121 7.86494C123.414 5.42896 117.743 6.789 119.1 10.5604C119.855 12.6573 124.883 15.1824 126.683 17.1131C130.35 21.0475 127.286 26.3874 121.782 26.1232C120.609 26.0667 119.465 25.5606 118.479 25.4906C117.975 25.4548 117.855 25.7404 117.507 25.2725C117.284 24.9725 117.06 23.9021 117.06 23.5392V22.2293V22.2309Z" fill="#685C51"/>
<path d="M113.174 6.27738C113.069 6.4246 112.884 6.46996 112.741 6.6339C112.331 7.10502 112.316 7.72894 112.217 8.29715C112.482 13.2145 111.877 18.423 112.217 23.3061C112.297 24.4521 112.569 25.193 113.609 25.8822H108.32C108.458 25.7007 108.75 25.61 108.925 25.4453C109.445 24.9582 109.657 24.1298 109.71 23.4645C110.11 18.4923 109.402 13.0776 109.71 8.0592C109.634 7.52998 109.534 7.00554 109.146 6.59172C109.011 6.44848 108.83 6.41266 108.755 6.27658H113.176L113.174 6.27738Z" fill="#685C51"/>
<path d="M41.6226 2.3474L41.7079 1.93806L41.4392 1.61827C40.305 0.270862 37.5377 0.155735 36.992 0.147207L36.5442 0.13868L36.2841 0.501115C36.1861 0.637561 26.5112 14.1244 23.7353 17.5739C23.4411 17.9406 23.4966 18.4779 23.8675 18.7721C24.0253 18.9 24.2129 18.9597 24.4005 18.9597C24.6478 18.9597 24.8994 18.8489 25.0657 18.6399C27.6411 15.4377 35.7767 4.12973 37.4013 1.86984C38.237 1.9338 39.2774 2.1342 39.8488 2.47958C38.4971 8.47895 36.0454 13.1096 32.5574 16.2564C23.4156 24.5028 10.2186 20.2815 7.49399 18.4097C6.04425 17.4119 5.36202 16.2308 5.66902 15.2416C6.21054 13.4933 9.86901 11.6215 18.5078 11.6172H18.5163C20.1792 11.6172 22.5756 11.9242 24.1831 12.615C24.618 12.7983 25.1169 12.5979 25.3045 12.1673C25.4921 11.7323 25.2874 11.2335 24.8568 11.0458C22.8996 10.2058 20.2219 9.91164 18.5205 9.91164H18.512C10.1462 9.91164 5.00811 11.63 4.04872 14.7342C3.5072 16.4738 4.43674 18.3756 6.5346 19.8168C8.61541 21.2452 13.4166 22.8399 18.8489 22.8399C23.5477 22.8399 28.7199 21.6417 33.0137 18.1155C34.4208 20.0257 35.167 22.1705 35.167 24.3792C35.167 31.4147 27.6966 37.1412 18.5163 37.1412C9.33601 37.1412 2.45401 31.8752 1.88691 25.2277C4.8205 25.2704 14.7214 26.0635 19.7358 34.5274C19.9746 34.9325 20.499 35.0646 20.9041 34.8259C21.3092 34.5871 21.4456 34.0626 21.2026 33.6575C14.7683 22.793 1.50741 23.5008 0.944574 23.5349L0.147217 23.5861V24.3877C0.147217 32.3656 8.38089 38.8553 18.5078 38.8553C28.6346 38.8553 36.864 32.3656 36.864 24.3877C36.864 21.7611 35.9729 19.2156 34.2843 16.9813C37.8234 13.5232 40.2965 8.60687 41.6269 2.35167L41.6226 2.3474Z" fill="#685C51"/>
</svg>
