<svg width="77" height="71" viewBox="0 0 77 71" fill="none" xmlns="http://www.w3.org/2000/svg">
<path d="M76.5252 4.44008L76.6817 3.69881L76.1888 3.11969C74.108 0.679676 69.0312 0.471194 68.0299 0.455751L67.2086 0.440308L66.7314 1.09664C66.5515 1.34373 48.8021 25.767 43.7096 32.0138C43.1699 32.6778 43.2716 33.6507 43.9521 34.1835C44.2416 34.4152 44.5858 34.5233 44.9299 34.5233C45.3837 34.5233 45.8452 34.3225 46.1503 33.9442C50.8751 28.1453 65.8005 7.66769 68.7809 3.57526C70.3141 3.69109 72.2228 4.054 73.271 4.67944C70.7913 15.5437 66.2933 23.9293 59.8945 29.6278C43.1229 44.5613 18.9122 36.917 13.9135 33.5272C11.2539 31.7204 10.0023 29.5815 10.5655 27.7901C11.559 24.6242 18.2707 21.2345 34.1192 21.2268H34.1348C37.1856 21.2268 41.5819 21.7827 44.531 23.0336C45.3289 23.3656 46.2441 23.0027 46.5883 22.2228C46.9325 21.4352 46.557 20.5318 45.767 20.1921C42.1764 18.6709 37.2638 18.1381 34.1427 18.1381H34.127C18.7792 18.1381 9.353 21.2499 7.59293 26.8712C6.59947 30.0216 8.30478 33.4654 12.1535 36.0753C15.9709 38.662 24.7791 41.5499 34.745 41.5499C43.3654 41.5499 52.8542 39.3801 60.7315 32.9944C63.3129 36.4537 64.6819 40.3376 64.6819 44.3374C64.6819 57.078 50.9768 67.448 34.1348 67.448C17.2929 67.448 4.6673 57.9119 3.6269 45.874C9.00881 45.9512 27.1728 47.3874 36.3721 62.7147C36.8101 63.4483 37.7723 63.6876 38.5155 63.2552C39.2586 62.8228 39.5089 61.8731 39.063 61.1395C27.2588 41.465 2.93069 42.7467 1.89812 42.8085L0.435303 42.9012V44.3528C0.435303 58.7999 15.5406 70.5521 34.1192 70.5521C52.6977 70.5521 67.7952 58.7999 67.7952 44.3528C67.7952 39.5963 66.1603 34.9866 63.0626 30.9405C69.5553 24.6783 74.0924 15.7753 76.533 4.4478L76.5252 4.44008Z" fill="url(#paint0_linear_104_169)"/>
<defs>
<linearGradient id="paint0_linear_104_169" x1="0.435303" y1="35.4962" x2="76.6817" y2="35.4962" gradientUnits="userSpaceOnUse">
<stop stop-color="#B49887"/>
<stop offset="1" stop-color="#F8ECBD"/>
</linearGradient>
</defs>
</svg>
