<svg width="44" height="42" viewBox="0 0 44 42" fill="none" xmlns="http://www.w3.org/2000/svg">
<path d="M42.8359 3.38388L42.9216 2.96346L42.6516 2.63501C41.5114 1.25112 38.7296 1.13287 38.181 1.12412L37.7309 1.11536L37.4694 1.4876C37.3708 1.62775 27.6452 15.4798 24.8548 19.0227C24.559 19.3993 24.6147 19.9511 24.9877 20.2533C25.1462 20.3847 25.3348 20.446 25.5234 20.446C25.7721 20.446 26.0249 20.3321 26.1921 20.1175C28.7811 16.8286 36.9594 5.21447 38.5925 2.89339C39.4326 2.95908 40.4784 3.16491 41.0528 3.51964C39.694 9.68145 37.2294 14.4375 33.7232 17.6695C24.5333 26.1392 11.2671 21.8036 8.52816 19.8811C7.07081 18.8563 6.385 17.6432 6.69361 16.6272C7.23798 14.8316 10.9156 12.9091 19.5997 12.9047H19.6083C21.28 12.9047 23.6889 13.22 25.3048 13.9295C25.742 14.1178 26.2435 13.9119 26.4321 13.4696C26.6207 13.0229 26.415 12.5105 25.9821 12.3178C24.0147 11.4551 21.3228 11.1529 19.6126 11.1529H19.604C11.1943 11.1529 6.02923 12.9178 5.06481 16.106C4.52045 17.8928 5.45487 19.846 7.56374 21.3263C9.65547 22.7934 14.4819 24.4312 19.9426 24.4312C24.6662 24.4312 29.8655 23.2006 34.1818 19.5789C35.5963 21.5408 36.3464 23.7437 36.3464 26.0122C36.3464 33.2382 28.8368 39.1197 19.6083 39.1197C10.3799 39.1197 3.46172 33.7112 2.89164 26.8837C5.84064 26.9275 15.7935 27.7421 20.8342 36.4352C21.0742 36.8512 21.6015 36.987 22.0087 36.7417C22.4159 36.4965 22.553 35.9578 22.3087 35.5418C15.8406 24.3831 2.51016 25.1101 1.94437 25.1451L1.14282 25.1976V26.021C1.14282 34.2148 9.41972 40.8802 19.5997 40.8802C29.7798 40.8802 38.0524 34.2148 38.0524 26.021C38.0524 23.3233 37.1565 20.7088 35.4591 18.414C39.0168 14.8623 41.5029 9.81283 42.8402 3.38826L42.8359 3.38388Z" fill="#9F593F" stroke="#9F593F" stroke-width="0.5"/>
</svg>
