<svg width="59" height="69" viewBox="0 0 59 69" fill="none" xmlns="http://www.w3.org/2000/svg">
<path fill-rule="evenodd" clip-rule="evenodd" d="M15.105 8.05302L19.6894 2.32244C20.3595 1.48666 21.3716 1 22.4436 1H35.9819C37.054 1 38.0661 1.48666 38.7361 2.32244L43.3171 8.05302V8.05302V11.5795C43.3171 13.5262 41.7372 15.106 39.7906 15.106H18.6315C16.6849 15.106 15.105 13.5262 15.105 11.5795V8.05302V8.05302Z" stroke="#9F593F" stroke-width="2" stroke-linecap="round" stroke-linejoin="round"/>
<path d="M15.106 8.04797H8.05302C4.15623 8.04797 1 11.2042 1 15.101V60.9456C1 64.8424 4.15623 67.9987 8.05302 67.9987H50.3711C54.2679 67.9987 57.4242 64.8424 57.4242 60.9456V15.101C57.4242 11.2042 54.2679 8.04797 50.3711 8.04797H43.3181" stroke="#9F593F" stroke-width="2" stroke-linecap="round" stroke-linejoin="round"/>
<path d="M36.2652 38.0253L27.4489 46.8415L22.1592 41.5518" stroke="#9F593F" stroke-width="2" stroke-linecap="round" stroke-linejoin="round"/>
</svg>
