<svg width="55" height="53" viewBox="0 0 55 53" fill="none" xmlns="http://www.w3.org/2000/svg">
<path fill-rule="evenodd" clip-rule="evenodd" d="M51.0901 36.6847H45.2706C42.0554 36.6847 39.4512 34.0805 39.4512 30.8652V30.8652C39.4512 27.65 42.0554 25.0458 45.2706 25.0458H51.0901C52.6962 25.0458 53.9998 26.3493 53.9998 27.9555V33.7749C53.9998 35.3811 52.6962 36.6847 51.0901 36.6847Z" stroke="#9F593F" stroke-width="2" stroke-linecap="round" stroke-linejoin="round"/>
<path d="M51.0903 25.0454V16.3162C51.0903 13.1009 48.4861 10.4967 45.2708 10.4967H5.98958C3.58033 10.4967 1.625 8.54141 1.625 6.13216V6.13216C1.625 3.72291 3.58033 1.76758 5.98958 1.76758H42.3611" stroke="#9F593F" stroke-width="2" stroke-linecap="round" stroke-linejoin="round"/>
<path d="M51.0903 36.6842V45.4133C51.0903 48.6286 48.4861 51.2328 45.2708 51.2328H7.44445C4.2292 51.2328 1.625 48.6286 1.625 45.4133V6.13208" stroke="#9F593F" stroke-width="2" stroke-linecap="round" stroke-linejoin="round"/>
</svg>
