<svg width="54" height="47" viewBox="0 0 54 47" fill="none" xmlns="http://www.w3.org/2000/svg">
<path d="M44.4996 38.6865C46.0959 40.2828 46.0959 42.8693 44.4996 44.463C42.9033 46.0593 40.3168 46.0593 38.7231 44.463C37.1268 42.8667 37.1268 40.2802 38.7231 38.6865C40.3194 37.0902 42.9059 37.0902 44.4996 38.6865" stroke="#9F593F" stroke-width="2" stroke-linecap="round" stroke-linejoin="round"/>
<path d="M16.1329 38.6855C17.7292 40.2818 17.7292 42.8683 16.1329 44.462C14.5366 46.0583 11.9501 46.0583 10.3564 44.462C8.7627 42.8658 8.76012 40.2792 10.3564 38.6855C11.9527 37.0918 14.5366 37.0892 16.1329 38.6855" stroke="#9F593F" stroke-width="2" stroke-linecap="round" stroke-linejoin="round"/>
<path d="M22.0543 1.81824H32.3695C33.793 1.81824 34.9483 2.97354 34.9483 4.39705V30.1851H1.42383" stroke="#9F593F" stroke-width="2" stroke-linecap="round" stroke-linejoin="round"/>
<path d="M9.16025 41.5737H4.00264C2.57913 41.5737 1.42383 40.4184 1.42383 38.9949V25.0281" stroke="#9F593F" stroke-width="2" stroke-linecap="round" stroke-linejoin="round"/>
<path d="M34.9487 9.55408H46.0969C47.1517 9.55408 48.1007 10.1962 48.4901 11.1761L52.6316 21.5275C52.874 22.1361 53.0004 22.7859 53.0004 23.441V38.7797C53.0004 40.2032 51.8451 41.3585 50.4216 41.3585H45.6998" stroke="#9F593F" stroke-width="2" stroke-linecap="round" stroke-linejoin="round"/>
<path d="M37.527 41.5842H17.335" stroke="#9F593F" stroke-width="2" stroke-linecap="round" stroke-linejoin="round"/>
<path d="M53.0003 27.6075H42.6851V17.2922H50.9372" stroke="#9F593F" stroke-width="2" stroke-linecap="round" stroke-linejoin="round"/>
<path d="M1.42383 1.8187H14.3179" stroke="#9F593F" stroke-width="2" stroke-linecap="round" stroke-linejoin="round"/>
<path d="M1.42383 9.55454H9.16025" stroke="#9F593F" stroke-width="2" stroke-linecap="round" stroke-linejoin="round"/>
<path d="M4.00264 17.2904H1.42383" stroke="#9F593F" stroke-width="2" stroke-linecap="round" stroke-linejoin="round"/>
</svg>
