<svg width="56" height="65" viewBox="0 0 56 65" fill="none" xmlns="http://www.w3.org/2000/svg">
<path d="M14.0015 8.0022H7.50098C3.91086 8.0022 1.00049 10.9126 1.00049 14.5027V56.7559C1.00049 60.346 3.91086 63.2563 7.50098 63.2563H27.0024" stroke="#9F593F" stroke-width="2" stroke-linecap="round" stroke-linejoin="round"/>
<rect x="14.0024" y="1.49805" width="26.002" height="13.001" rx="1" stroke="#9F593F" stroke-width="2" stroke-linecap="round" stroke-linejoin="round"/>
<path d="M40.0044 8.0022H46.5049C50.095 8.0022 53.0054 10.9126 53.0054 14.5027V34.0041" stroke="#9F593F" stroke-width="2" stroke-linecap="round" stroke-linejoin="round"/>
<path d="M14.0016 27.0963C13.7772 27.0963 13.5953 27.2782 13.5953 27.5026C13.5953 27.7269 13.7772 27.9088 14.0016 27.9088C14.226 27.9088 14.4079 27.7269 14.4079 27.5026C14.4079 27.2782 14.226 27.0963 14.0016 27.0963" stroke="#9F593F" stroke-width="2" stroke-linecap="round" stroke-linejoin="round"/>
<path d="M14.0016 40.0981C13.7772 40.0981 13.5953 40.28 13.5953 40.5044C13.5953 40.7288 13.7772 40.9107 14.0016 40.9107C14.226 40.9107 14.4079 40.7288 14.4079 40.5044C14.4079 40.28 14.226 40.0981 14.0016 40.0981" stroke="#9F593F" stroke-width="2" stroke-linecap="round" stroke-linejoin="round"/>
<path d="M40.0037 27.5026H23.7524" stroke="#9F593F" stroke-width="2" stroke-linecap="round" stroke-linejoin="round"/>
<path d="M30.2529 40.5044H23.7524" stroke="#9F593F" stroke-width="2" stroke-linecap="round" stroke-linejoin="round"/>
<path d="M54.2652 51.0254L45.4489 59.8417L40.1592 54.5519" stroke="#9F593F" stroke-width="2" stroke-linecap="round" stroke-linejoin="round"/>
</svg>
