<svg width="56" height="57" viewBox="0 0 56 57" fill="none" xmlns="http://www.w3.org/2000/svg">
<circle cx="27.8643" cy="28.6846" r="26.8643" stroke="#9F593F" stroke-width="2"/>
<path d="M21.4541 19.3203C21.5938 19.3203 21.7247 19.3505 21.8311 19.4014L21.8379 19.4053L21.8447 19.4082C21.9562 19.4596 22.0422 19.5287 22.1123 19.6299L22.1191 19.6387L24.4385 22.9092L24.4424 22.915C24.5861 23.1147 24.674 23.276 24.7285 23.4092L24.7314 23.417L24.7354 23.4238C24.7864 23.5429 24.7939 23.6183 24.7939 23.6406C24.7939 23.6793 24.7845 23.7412 24.7305 23.8301L24.7217 23.8438L24.7139 23.8584C24.6397 23.9896 24.5121 24.1588 24.3174 24.3535L24.3037 24.3672L23.5439 25.1572C23.279 25.4284 23.1419 25.7567 23.1113 26.0996L23.1045 26.25L23.1084 26.377C23.1167 26.5004 23.1367 26.6133 23.1641 26.7227L23.1777 26.7783L23.1982 26.8311C23.222 26.8944 23.2454 26.9504 23.2568 26.9775C23.2717 27.0127 23.2697 27.0083 23.2656 26.9961L23.2939 27.0811L23.3359 27.1592C23.5064 27.4717 23.7517 27.8254 24.0566 28.2109L24.3809 28.6064L24.3877 28.6143C24.8479 29.146 25.343 29.692 25.8809 30.2402L25.8867 30.2471L25.8936 30.2539C26.4416 30.7918 26.9811 31.3004 27.5371 31.7725L27.5381 31.7734C28.0877 32.2385 28.5796 32.5883 29.0068 32.8145L29.0537 32.8389L29.1025 32.8584C29.1025 32.8584 29.1097 32.8623 29.1396 32.876C29.1661 32.8881 29.2119 32.9088 29.2607 32.9297L29.2812 32.9385L29.3027 32.9463C29.5289 33.0311 29.7368 33.0508 29.9043 33.0508C30.3536 33.0508 30.7333 32.8741 31.0205 32.5869L31.7764 31.8418L31.7812 31.8379C31.9908 31.6284 32.1494 31.5131 32.2568 31.457L32.2861 31.4414L32.3145 31.4248C32.4071 31.3684 32.4591 31.3604 32.5039 31.3604C32.5473 31.3604 32.6191 31.3685 32.7354 31.416C32.8034 31.4438 32.8794 31.4805 32.9648 31.5283L33.252 31.707L36.5449 34.0459L36.5547 34.0527C36.6778 34.138 36.7266 34.2076 36.7529 34.2627C36.8104 34.4115 36.834 34.5291 36.834 34.6504C36.834 34.8604 36.7876 35.0849 36.6797 35.3135C36.5495 35.589 36.3837 35.8453 36.1641 36.0879C35.7621 36.5308 35.3413 36.8275 34.8848 37.0146L34.8799 37.0176C34.4064 37.2149 33.8874 37.3203 33.3145 37.3203C32.4526 37.3203 31.4959 37.1171 30.4463 36.6699C29.507 36.2697 28.559 35.7445 27.6094 35.0898L27.2031 34.8018C26.2333 34.0933 25.3067 33.3183 24.417 32.4688L24.0381 32.0996C23.0462 31.0974 22.1521 30.0498 21.3555 28.9561H21.3564C20.6698 28.0014 20.108 27.0591 19.6797 26.1348L19.5049 25.7393C19.0678 24.7004 18.8643 23.7435 18.8643 22.8604C18.8643 22.2989 18.9628 21.7758 19.1523 21.3018L19.1553 21.2969C19.3381 20.8321 19.6309 20.3927 20.0605 19.9873L20.0684 19.9805L20.0762 19.9727C20.565 19.4916 21.0234 19.3204 21.4541 19.3203Z" stroke="#9F593F" stroke-width="2"/>
</svg>
