<svg width="56" height="57" viewBox="0 0 56 57" fill="none" xmlns="http://www.w3.org/2000/svg">
<circle cx="27.8643" cy="28.8213" r="26.8643" stroke="#9F593F" stroke-width="2"/>
<path d="M23 21.499H33C34.3465 21.499 35.316 21.8356 35.9443 22.4189C36.5593 22.99 37 23.9396 37 25.499V32.499C37 34.0584 36.5593 35.0081 35.9443 35.5791C35.316 36.1624 34.3465 36.499 33 36.499H23C21.6535 36.499 20.684 36.1624 20.0557 35.5791C19.4407 35.0081 19 34.0584 19 32.499V25.499C19 23.9396 19.4407 22.99 20.0557 22.4189C20.684 21.8356 21.6535 21.499 23 21.499Z" stroke="#9F593F" stroke-width="2"/>
<mask id="path-3-inside-1_331_7964" fill="white">
<path d="M33 25.999L29.87 28.499C28.84 29.319 27.15 29.319 26.12 28.499L23 25.999"/>
</mask>
<path d="M29.87 28.499L31.1157 30.0637L31.1182 30.0617L29.87 28.499ZM26.12 28.499L24.8694 30.0598L24.8743 30.0637L26.12 28.499ZM33 25.999L31.7518 24.4363L28.6218 26.9363L29.87 28.499L31.1182 30.0617L34.2482 27.5617L33 25.999ZM29.87 28.499L28.6243 26.9343C28.3234 27.1739 27.6666 27.1739 27.3657 26.9343L26.12 28.499L24.8743 30.0637C26.6334 31.4641 29.3566 31.4641 31.1157 30.0637L29.87 28.499ZM26.12 28.499L27.3706 26.9383L24.2506 24.4383L23 25.999L21.7494 27.5598L24.8694 30.0598L26.12 28.499Z" fill="#9F593F" mask="url(#path-3-inside-1_331_7964)"/>
</svg>
