<svg width="56" height="56" viewBox="0 0 56 56" fill="none" xmlns="http://www.w3.org/2000/svg">
<circle cx="27.8643" cy="27.9971" r="26.8643" stroke="#9F593F" stroke-width="2"/>
<path d="M23 20.6748H33C34.3465 20.6748 35.316 21.0114 35.9443 21.5947C36.5593 22.1657 37 23.1154 37 24.6748V31.6748C37 33.2342 36.5593 34.1839 35.9443 34.7549C35.316 35.3382 34.3465 35.6748 33 35.6748H23C21.6535 35.6748 20.684 35.3382 20.0557 34.7549C19.4407 34.1839 19 33.2342 19 31.6748V24.6748C19 23.1154 19.4407 22.1657 20.0557 21.5947C20.684 21.0114 21.6535 20.6748 23 20.6748Z" stroke="#9F593F" stroke-width="2"/>
<mask id="path-3-inside-1_331_7967" fill="white">
<path d="M33 25.1748L29.87 27.6748C28.84 28.4948 27.15 28.4948 26.12 27.6748L23 25.1748"/>
</mask>
<path d="M29.87 27.6748L31.1157 29.2395L31.1182 29.2375L29.87 27.6748ZM26.12 27.6748L24.8694 29.2356L24.8743 29.2395L26.12 27.6748ZM33 25.1748L31.7518 23.6121L28.6218 26.1121L29.87 27.6748L31.1182 29.2375L34.2482 26.7375L33 25.1748ZM29.87 27.6748L28.6243 26.1101C28.3234 26.3497 27.6666 26.3497 27.3657 26.1101L26.12 27.6748L24.8743 29.2395C26.6334 30.6399 29.3566 30.6399 31.1157 29.2395L29.87 27.6748ZM26.12 27.6748L27.3706 26.114L24.2506 23.614L23 25.1748L21.7494 26.7356L24.8694 29.2356L26.12 27.6748Z" fill="#9F593F" mask="url(#path-3-inside-1_331_7967)"/>
</svg>
