<svg width="56" height="56" viewBox="0 0 56 56" fill="none" xmlns="http://www.w3.org/2000/svg">
<circle cx="27.8643" cy="28.1377" r="26.8643" stroke="#9F593F" stroke-width="2"/>
<path d="M28 24.19C29.1708 24.1901 30.1201 25.1393 30.1201 26.3101C30.1201 27.4809 29.1708 28.4302 28 28.4302C26.8292 28.4302 25.8799 27.4809 25.8799 26.3101C25.8799 25.1393 26.8292 24.19 28 24.19Z" stroke="#9F593F" stroke-width="2"/>
<path d="M28.0029 19C31.3259 19.0023 34.5462 20.9297 35.4043 24.7207C36.4305 29.2537 33.6264 33.2071 30.9072 35.8184L30.9053 35.8203C29.2837 37.3854 26.716 37.3876 25.082 35.8184C22.3731 33.2071 19.5693 29.2445 20.5947 24.7119C21.4572 20.9207 24.68 18.9978 28.0029 19Z" stroke="#9F593F" stroke-width="2"/>
</svg>
