<svg width="62" height="60" viewBox="0 0 62 60" fill="none" xmlns="http://www.w3.org/2000/svg">
<path d="M61.2123 4.03938L61.3366 3.41981L60.9451 2.93577C59.2918 0.896358 55.2582 0.722104 54.4626 0.709197L53.81 0.696289L53.4309 1.24487C53.288 1.45139 39.1857 21.8649 35.1397 27.0861C34.7108 27.6411 34.7916 28.4543 35.3323 28.8996C35.5623 29.0932 35.8358 29.1836 36.1092 29.1836C36.4697 29.1836 36.8364 29.0158 37.0788 28.6995C40.8328 23.8527 52.6913 6.73709 55.0593 3.31655C56.2775 3.41336 57.794 3.71669 58.6268 4.23945C56.6566 13.32 53.0829 20.3289 47.9989 25.0918C34.6735 37.5735 15.4376 31.1842 11.4661 28.351C9.35291 26.8408 8.35848 25.0531 8.80597 23.5558C9.5953 20.9097 14.9279 18.0765 27.5199 18.07H27.5323C29.9562 18.07 33.4491 18.5347 35.7923 19.5802C36.4262 19.8577 37.1534 19.5544 37.4268 18.9026C37.7003 18.2443 37.402 17.4892 36.7743 17.2052C33.9215 15.9338 30.0184 15.4885 27.5385 15.4885H27.5261C15.3319 15.4885 7.84262 18.0894 6.44421 22.7878C5.65488 25.421 7.00979 28.2994 10.0677 30.4808C13.1007 32.6428 20.0989 35.0565 28.0171 35.0565C34.8662 35.0565 42.4052 33.243 48.6639 27.9057C50.7149 30.797 51.8025 34.0433 51.8025 37.3864C51.8025 48.0352 40.9136 56.7027 27.5323 56.7027C14.151 56.7027 4.11973 48.7322 3.29311 38.6707C7.56915 38.7352 22.0008 39.9357 29.3098 52.7465C29.6579 53.3596 30.4223 53.5597 31.0128 53.1983C31.6032 52.8369 31.8021 52.0431 31.4479 51.43C22.0692 34.9856 2.73996 36.0569 1.91956 36.1085L0.757324 36.186V37.3993C0.757324 49.4744 12.7588 59.2972 27.5199 59.2972C42.2809 59.2972 54.2762 49.4744 54.2762 37.3993C54.2762 33.4237 52.9772 29.5708 50.516 26.189C55.6746 20.9549 59.2794 13.5136 61.2185 4.04583L61.2123 4.03938Z" fill="url(#paint0_linear_331_8184)" stroke="url(#paint1_linear_331_8184)" stroke-width="0.5"/>
<defs>
<linearGradient id="paint0_linear_331_8184" x1="0.757324" y1="29.9967" x2="61.3366" y2="29.9967" gradientUnits="userSpaceOnUse">
<stop stop-color="#B49887"/>
<stop offset="1" stop-color="#F8ECBD"/>
</linearGradient>
<linearGradient id="paint1_linear_331_8184" x1="0.757324" y1="29.9967" x2="61.3366" y2="29.9967" gradientUnits="userSpaceOnUse">
<stop stop-color="#B49887"/>
<stop offset="1" stop-color="#F8ECBD"/>
</linearGradient>
</defs>
</svg>
