<svg width="32" height="32" viewBox="0 0 32 32" fill="none" xmlns="http://www.w3.org/2000/svg">
<circle cx="16" cy="16" r="16" fill="#9F593F"/>
<path d="M26.4188 6.6555L26.4617 6.45635L26.3267 6.30077C25.7566 5.64524 24.3657 5.58923 24.0913 5.58508L23.8663 5.58093L23.7356 5.75726C23.6863 5.82364 18.8234 12.3851 17.4282 14.0634C17.2804 14.2418 17.3082 14.5031 17.4947 14.6463C17.574 14.7085 17.6683 14.7376 17.7626 14.7376C17.8869 14.7376 18.0133 14.6836 18.0969 14.582C19.3914 13.0241 23.4805 7.52262 24.2971 6.42316C24.7171 6.45428 25.2401 6.55177 25.5273 6.71981C24.8479 9.63856 23.6156 11.8914 21.8624 13.4224C17.2675 17.4343 10.6344 15.3806 9.26494 14.4699C8.53626 13.9845 8.19335 13.4099 8.34766 12.9286C8.61984 12.0781 10.4587 11.1674 14.8007 11.1654H14.805C15.6408 11.1654 16.8453 11.3147 17.6533 11.6508C17.8719 11.74 18.1226 11.6425 18.2169 11.433C18.3112 11.2214 18.2084 10.9787 17.9919 10.8874C17.0082 10.4787 15.6623 10.3356 14.8072 10.3356H14.8029C10.598 10.3356 8.01547 11.1716 7.53326 12.6818C7.26108 13.5281 7.72829 14.4534 8.78272 15.1545C9.82859 15.8495 12.2418 16.6253 14.9722 16.6253C17.3339 16.6253 19.9336 16.0424 22.0918 14.3268C22.799 15.2562 23.1741 16.2996 23.1741 17.3742C23.1741 20.797 19.4192 23.583 14.805 23.583C10.1908 23.583 6.73172 21.0211 6.44668 17.787C7.92117 17.8077 12.8976 18.1936 15.418 22.3114C15.538 22.5084 15.8016 22.5727 16.0052 22.4566C16.2088 22.3404 16.2774 22.0853 16.1552 21.8882C12.9212 16.6025 6.25593 16.9468 5.97304 16.9634L5.57227 16.9883V17.3783C5.57227 21.2596 9.71071 24.4169 14.8007 24.4169C19.8907 24.4169 24.027 21.2596 24.027 17.3783C24.027 16.1005 23.5791 14.862 22.7304 13.775C24.5093 12.0926 25.7523 9.70079 26.421 6.65757L26.4188 6.6555Z" fill="url(#paint0_linear_331_8122)" stroke="url(#paint1_linear_331_8122)" stroke-width="0.2"/>
<defs>
<linearGradient id="paint0_linear_331_8122" x1="5.57227" y1="14.9989" x2="26.4617" y2="14.9989" gradientUnits="userSpaceOnUse">
<stop stop-color="#B49887"/>
<stop offset="1" stop-color="#F8ECBD"/>
</linearGradient>
<linearGradient id="paint1_linear_331_8122" x1="5.57227" y1="14.9989" x2="26.4617" y2="14.9989" gradientUnits="userSpaceOnUse">
<stop stop-color="#B49887"/>
<stop offset="1" stop-color="#F8ECBD"/>
</linearGradient>
</defs>
</svg>
