<svg width="34" height="34" viewBox="0 0 34 34" fill="none" xmlns="http://www.w3.org/2000/svg">
<path d="M24.084 26.1088H18.4173L12.1131 30.302C11.1781 30.9254 9.91732 30.2596 9.91732 29.1263V26.1088C5.66732 26.1088 2.83398 23.2754 2.83398 19.0254V10.5254C2.83398 6.27535 5.66732 3.44202 9.91732 3.44202H24.084C28.334 3.44202 31.1673 6.27535 31.1673 10.5254V19.0254C31.1673 23.2754 28.334 26.1088 24.084 26.1088Z" stroke="white" stroke-width="1.5" stroke-miterlimit="10" stroke-linecap="round" stroke-linejoin="round"/>
<path d="M17.0001 16.0924V15.795C17.0001 14.8316 17.5951 14.3216 18.1901 13.9108C18.7709 13.5141 19.3517 13.0041 19.3517 12.0691C19.3517 10.7658 18.3034 9.71741 17.0001 9.71741C15.6967 9.71741 14.6484 10.7658 14.6484 12.0691" stroke="white" stroke-width="1.5" stroke-linecap="round" stroke-linejoin="round"/>
<path d="M16.993 19.4791H17.0057" stroke="white" stroke-width="1.5" stroke-linecap="round" stroke-linejoin="round"/>
</svg>
