<svg width="20" height="20" viewBox="0 0 20 20" fill="none" xmlns="http://www.w3.org/2000/svg">
<g clip-path="url(#clip0_331_8117)">
<path fill-rule="evenodd" clip-rule="evenodd" d="M18.9185 0.297401C19.1081 0.487021 19.1682 0.770527 19.072 1.02082L12.2862 18.6637C12.1881 18.9188 11.9464 19.0902 11.6731 19.0984C11.3998 19.1065 11.1483 18.9498 11.0352 18.7009L8.19743 12.4579L12.3726 8.28265C12.7701 7.88516 12.7701 7.24068 12.3726 6.84318C11.9751 6.44569 11.3307 6.44569 10.9332 6.84318L6.75795 11.0184L0.514966 8.18069C0.266054 8.06754 0.109362 7.81607 0.117489 7.54276C0.125616 7.26948 0.296974 7.02774 0.552168 6.92959L18.195 0.143882C18.4453 0.047617 18.7288 0.107781 18.9185 0.297401Z" fill="white"/>
</g>
<defs>
<clipPath id="clip0_331_8117">
<rect width="19" height="19" fill="white" transform="translate(0.117188 0.0986328)"/>
</clipPath>
</defs>
</svg>
