<svg width="100" height="100" viewBox="0 0 100 100" fill="none" xmlns="http://www.w3.org/2000/svg">
<circle cx="50" cy="50" r="49.25" stroke="#9F593F" stroke-width="1.5"/>
<path d="M62.9925 30.7445C65.3185 33.0705 65.3185 36.8418 62.9925 39.1678C60.6665 41.4938 56.8952 41.4938 54.5692 39.1678C52.2432 36.8417 52.2432 33.0705 54.5692 30.7445C56.8952 28.4185 60.6665 28.4185 62.9925 30.7445" stroke="#9F593F" stroke-width="1.5" stroke-linecap="round" stroke-linejoin="round"/>
<path d="M62.9925 59.1784C65.3185 61.5044 65.3185 65.2756 62.9925 67.6016C60.6665 69.9276 56.8952 69.9276 54.5692 67.6016C52.2432 65.2756 52.2432 61.5044 54.5692 59.1784C56.8952 56.8523 60.6665 56.8523 62.9925 59.1784" stroke="#9F593F" stroke-width="1.5" stroke-linecap="round" stroke-linejoin="round"/>
<path d="M45.2684 41.321C48.9901 45.0427 48.9901 51.0766 45.2684 54.7982C41.5468 58.5199 35.5128 58.5199 31.7912 54.7982C28.0696 51.0766 28.0696 45.0426 31.7912 41.321C35.5129 37.5994 41.5468 37.5994 45.2684 41.321" stroke="#9F593F" stroke-width="1.5" stroke-linecap="round" stroke-linejoin="round"/>
<path d="M48.0597 48.0596H29" stroke="#9F593F" stroke-width="1.5" stroke-linecap="round" stroke-linejoin="round"/>
</svg>
