<svg width="100" height="100" viewBox="0 0 100 100" fill="none" xmlns="http://www.w3.org/2000/svg">
<circle cx="50" cy="50" r="49.25" stroke="#9F593F" stroke-width="1.5"/>
<path d="M40.7907 67.8456C39.9704 67.8446 39.1833 67.5282 38.6011 66.9654L33.1272 61.6217C32.5407 61.051 32.2116 60.2753 32.2134 59.4673C32.2156 58.8149 32.4317 58.1798 32.8298 57.6552L46.1371 40.143C48.3541 37.2254 51.3607 34.9662 54.8207 33.6186C57.1896 32.694 59.7188 32.2192 62.2711 32.2205H66.2249C67.6337 32.2205 68.7758 33.3335 68.7758 34.7061V38.4239C68.7753 44.117 66.0765 49.4906 61.4633 52.9848L42.6931 67.2139C42.151 67.6213 41.4862 67.8434 40.8014 67.8456H40.7907ZM55.4473 35.1617C52.2843 36.394 49.5354 38.4597 47.5079 41.1269L34.1904 58.6389C33.7676 59.1927 33.8265 59.9647 34.3286 60.4513L39.802 65.7953C40.0642 66.05 40.4202 66.1917 40.7907 66.1886C41.099 66.1857 41.3979 66.0838 41.6409 65.8986L60.4218 51.6797C64.6204 48.4986 67.0764 43.6063 67.0751 38.4239V34.7061C67.0751 34.2484 66.6947 33.8777 66.2249 33.8777H62.2711C59.9333 33.8775 57.6172 34.3133 55.4473 35.1617Z" fill="#9F593F"/>
</svg>
