<svg width="20" height="20" viewBox="0 0 20 20" fill="none" xmlns="http://www.w3.org/2000/svg">
<path d="M16.3639 3.43771C19.8787 6.94093 19.8787 12.6208 16.3639 16.1239C12.8492 19.6272 7.15074 19.6272 3.63604 16.1239C0.12132 12.6207 0.12132 6.94091 3.63604 3.43771C7.15076 -0.0655006 12.8492 -0.0655006 16.3639 3.43771" stroke="#9F593F" stroke-width="1.5" stroke-linecap="round" stroke-linejoin="round"/>
<path d="M11.803 12.5178L9.54904 14.7644L8.19604 13.4159" stroke="#9F593F" stroke-width="1.5" stroke-linecap="round" stroke-linejoin="round"/>
<path d="M7 7.15356H6C5.172 7.15356 4.5 7.82336 4.5 8.64865V16.758" stroke="#9F593F" stroke-width="1.5" stroke-linecap="round" stroke-linejoin="round"/>
<path d="M13 7.15356H14C14.828 7.15356 15.5 7.82336 15.5 8.64865V16.758" stroke="#9F593F" stroke-width="1.5" stroke-linecap="round" stroke-linejoin="round"/>
<path fill-rule="evenodd" clip-rule="evenodd" d="M11.905 8.51202H8.096C7.49 8.51202 7 8.02362 7 7.4206V6.88536C7 6.28234 7.49 5.79395 8.095 5.79395H11.904C12.51 5.79395 13 6.28234 13 6.88536V7.41961C13 8.02362 12.51 8.51202 11.905 8.51202V8.51202Z" stroke="#9F593F" stroke-width="1.5" stroke-linecap="round" stroke-linejoin="round"/>
</svg>
