<svg width="24" height="25" viewBox="0 0 24 25" fill="none" xmlns="http://www.w3.org/2000/svg">
<path fill-rule="evenodd" clip-rule="evenodd" d="M15 19.6432H11C9.895 19.6432 9 18.7511 9 17.6498V12.1678C9 11.0664 9.895 10.1743 11 10.1743H19C20.105 10.1743 21 11.0664 21 12.1678V17.6498C21 18.7511 20.105 19.6432 19 19.6432H18V21.6367L15 19.6432Z" stroke="#9F593F" stroke-width="1.5" stroke-linecap="round" stroke-linejoin="round"/>
<path d="M17.609 10.1745V6.12283C17.609 4.78223 16.519 3.6958 15.174 3.6958H5.435C4.09 3.6958 3 4.78223 3 6.12283V12.7969C3 14.1375 4.09 15.2239 5.435 15.2239H6.652V17.65L9 16.0901" stroke="#9F593F" stroke-width="1.5" stroke-linecap="round" stroke-linejoin="round"/>
</svg>
