<svg width="21" height="18" viewBox="0 0 21 18" fill="none" xmlns="http://www.w3.org/2000/svg">
<path d="M16.2712 14.5277C16.8371 15.0936 16.8371 16.0106 16.2712 16.5756C15.7053 17.1416 14.7883 17.1416 14.2233 16.5756C13.6573 16.0097 13.6573 15.0927 14.2233 14.5277C14.7892 13.9618 15.7062 13.9618 16.2712 14.5277" stroke="#9F593F" stroke-width="1.5" stroke-linecap="round" stroke-linejoin="round"/>
<path d="M6.21469 14.5274C6.78061 15.0933 6.78061 16.0103 6.21469 16.5753C5.64877 17.1412 4.73178 17.1412 4.16677 16.5753C3.60177 16.0094 3.60085 15.0924 4.16677 14.5274C4.73269 13.9624 5.64877 13.9614 6.21469 14.5274" stroke="#9F593F" stroke-width="1.5" stroke-linecap="round" stroke-linejoin="round"/>
<path d="M8.314 1.45703H11.971C12.4757 1.45703 12.8853 1.86662 12.8853 2.37128V11.5138H1" stroke="#9F593F" stroke-width="1.5" stroke-linecap="round" stroke-linejoin="round"/>
<path d="M3.74275 15.5511H1.91425C1.40958 15.5511 1 15.1415 1 14.6369V9.6853" stroke="#9F593F" stroke-width="1.5" stroke-linecap="round" stroke-linejoin="round"/>
<path d="M12.8853 4.19971H16.8376C17.2115 4.19971 17.5479 4.42736 17.686 4.77477L19.1543 8.44457C19.2402 8.66033 19.285 8.89072 19.285 9.12294V14.5609C19.285 15.0656 18.8754 15.4752 18.3708 15.4752H16.6968" stroke="#9F593F" stroke-width="1.5" stroke-linecap="round" stroke-linejoin="round"/>
<path d="M13.7994 15.5548H6.64087" stroke="#9F593F" stroke-width="1.5" stroke-linecap="round" stroke-linejoin="round"/>
<path d="M19.2849 10.5999H15.6279V6.94287H18.5535" stroke="#9F593F" stroke-width="1.5" stroke-linecap="round" stroke-linejoin="round"/>
<path d="M1 1.45713H5.57125" stroke="#9F593F" stroke-width="1.5" stroke-linecap="round" stroke-linejoin="round"/>
<path d="M1 4.1998H3.74275" stroke="#9F593F" stroke-width="1.5" stroke-linecap="round" stroke-linejoin="round"/>
<path d="M1.91425 6.94199H1" stroke="#9F593F" stroke-width="1.5" stroke-linecap="round" stroke-linejoin="round"/>
</svg>
