<svg width="24" height="24" viewBox="0 0 24 24" fill="none" xmlns="http://www.w3.org/2000/svg">
<path d="M17 7.02637H19C20.105 7.02637 21 7.91844 21 9.01982V18.9871C21 20.0885 20.105 20.9805 19 20.9805H5C3.895 20.9805 3 20.0885 3 18.9871V9.01982C3 7.91844 3.895 7.02637 5 7.02637H7" stroke="#9F593F" stroke-width="1.5" stroke-linecap="round" stroke-linejoin="round"/>
<path fill-rule="evenodd" clip-rule="evenodd" d="M8.08399 9.78431L7.93999 8.70286L7.27499 7.83471C6.90899 7.35728 6.90899 6.69446 7.27499 6.21702L7.93999 5.34987L8.08499 4.26643C8.16499 3.67039 8.63499 3.20193 9.23299 3.12219L10.318 2.97866L11.189 2.31584C11.668 1.95104 12.333 1.95104 12.812 2.31584L13.682 2.97866L14.769 3.12319C15.367 3.20292 15.837 3.67139 15.917 4.26743L16.061 5.34888L16.726 6.21702C17.092 6.69446 17.092 7.35728 16.726 7.83471L16.061 8.70186L15.916 9.7853C15.836 10.3813 15.366 10.8498 14.768 10.9295L13.683 11.0731L12.812 11.7359C12.333 12.1007 11.668 12.1007 11.189 11.7359L10.319 11.0731L9.23199 10.9285C8.63399 10.8498 8.16399 10.3803 8.08399 9.78431Z" stroke="#9F593F" stroke-width="1.5" stroke-linecap="round" stroke-linejoin="round"/>
<path d="M13.5561 6.25098L11.6111 8.18961L10.4451 7.02643" stroke="#9F593F" stroke-width="1.5" stroke-linecap="round" stroke-linejoin="round"/>
<path d="M7 15.0001H17" stroke="#9F593F" stroke-width="1.5" stroke-linecap="round" stroke-linejoin="round"/>
<path d="M9 17.9903H15" stroke="#9F593F" stroke-width="1.5" stroke-linecap="round" stroke-linejoin="round"/>
</svg>
