<svg width="24" height="24" viewBox="0 0 24 24" fill="none" xmlns="http://www.w3.org/2000/svg">
<path d="M16.2678 2.72324C17.2441 3.69636 17.2441 5.27409 16.2678 6.2472C15.2915 7.22031 13.7085 7.22031 12.7322 6.2472C11.7559 5.27408 11.7559 3.69636 12.7322 2.72324C13.7085 1.75013 15.2915 1.75013 16.2678 2.72324" stroke="#9F593F" stroke-width="1.5" stroke-linecap="round" stroke-linejoin="round"/>
<path d="M8.82842 7.14796C10.3905 8.70495 10.3905 11.2293 8.82842 12.7863C7.26632 14.3433 4.73366 14.3433 3.17157 12.7863C1.60947 11.2293 1.60947 8.70494 3.17157 7.14796C4.73368 5.59098 7.26633 5.59098 8.82842 7.14796" stroke="#9F593F" stroke-width="1.5" stroke-linecap="round" stroke-linejoin="round"/>
<path d="M10 9.96736H2" stroke="#9F593F" stroke-width="1.5" stroke-linecap="round" stroke-linejoin="round"/>
<path fill-rule="evenodd" clip-rule="evenodd" d="M21.115 15.1054L16.155 20.0492C14.975 21.2253 13.063 21.2253 11.883 20.0492V20.0492C10.703 18.8731 10.703 16.9673 11.883 15.7912L16.843 10.8474C18.023 9.6713 19.935 9.6713 21.115 10.8474V10.8474C22.295 12.0236 22.295 13.9303 21.115 15.1054Z" stroke="#9F593F" stroke-width="1.5" stroke-linecap="round" stroke-linejoin="round"/>
<path d="M14.3799 13.3362L18.6199 17.5623" stroke="#9F593F" stroke-width="1.5" stroke-linecap="round" stroke-linejoin="round"/>
</svg>
