<svg width="24" height="24" viewBox="0 0 24 24" fill="none" xmlns="http://www.w3.org/2000/svg">
<path fill-rule="evenodd" clip-rule="evenodd" d="M9.2251 6.43071V6.43071C9.2251 4.90373 10.4671 3.66479 12.0001 3.66479V3.66479C13.5321 3.66479 14.7751 4.90273 14.7751 6.43071V6.43071C14.7751 7.95769 13.5331 9.19663 12.0001 9.19663V9.19663C10.4671 9.19463 9.2251 7.9567 9.2251 6.43071Z" stroke="#9F593F" stroke-width="1.5" stroke-linecap="round" stroke-linejoin="round"/>
<path fill-rule="evenodd" clip-rule="evenodd" d="M2.5 17.4905V17.4905C2.5 15.9635 3.742 14.7246 5.275 14.7246V14.7246C6.807 14.7246 8.05 15.9625 8.05 17.4905V17.4905C8.049 19.0175 6.808 20.2564 5.275 20.2564V20.2564C3.742 20.2564 2.5 19.0185 2.5 17.4905Z" stroke="#9F593F" stroke-width="1.5" stroke-linecap="round" stroke-linejoin="round"/>
<path fill-rule="evenodd" clip-rule="evenodd" d="M15.9509 17.4905V17.4905C15.9509 15.9635 17.1929 14.7246 18.7259 14.7246V14.7246C20.2579 14.7246 21.5009 15.9625 21.5009 17.4905V17.4905C21.5009 19.0175 20.2589 20.2564 18.7259 20.2564V20.2564C17.1919 20.2564 15.9509 19.0185 15.9509 17.4905H15.9509Z" stroke="#9F593F" stroke-width="1.5" stroke-linecap="round" stroke-linejoin="round"/>
<path d="M8.48998 11.8809L6.47998 15.0106" stroke="#9F593F" stroke-width="1.5" stroke-linecap="round" stroke-linejoin="round"/>
<path d="M13.5 8.75122L15.51 11.8809" stroke="#9F593F" stroke-width="1.5" stroke-linecap="round" stroke-linejoin="round"/>
<path d="M15.95 17.4925H12" stroke="#9F593F" stroke-width="1.5" stroke-linecap="round" stroke-linejoin="round"/>
</svg>
